<svg xmlns="http://www.w3.org/2000/svg" xmlns:xlink="http://www.w3.org/1999/xlink" width="36" height="36" viewBox="0 0 36 36"><defs><style>.a{fill:none;}.b{fill:#e2ebef;}.c{filter:url(#a);}</style><filter id="a" x="0" y="0" width="36" height="36" filterUnits="userSpaceOnUse"><feOffset dy="3" input="SourceAlpha"/><feGaussianBlur stdDeviation="3" result="b"/><feFlood flood-opacity="0.161"/><feComposite operator="in" in2="b"/><feComposite in="SourceGraphic"/></filter></defs><g transform="translate(6 3)"><rect class="a" width="24" height="24"/><g class="c" transform="matrix(1, 0, 0, 1, -6, -3)"><path class="b" d="M20.54,17.73,15,11V5h1a1,1,0,0,0,0-2H8A1,1,0,0,0,8,5H9v6L3.46,17.73A1.971,1.971,0,0,0,3,19a2.005,2.005,0,0,0,2,2H19a1.992,1.992,0,0,0,2-2A1.971,1.971,0,0,0,20.54,17.73Z" transform="translate(6 3)"/></g></g></svg>